<svg xmlns="http://www.w3.org/2000/svg" viewBox="0 0 384 384"><path d="M368 176c-8.832 0-16 7.168-16 16 0 88.224-71.776 160-160 160S32 280.224 32 192 103.776 32 192 32c42.952 0 83.272 16.784 113.536 47.264 6.224 6.264 16.36 6.304 22.624.08 6.272-6.224 6.304-16.36.08-22.632C291.928 20.144 243.536 0 192 0 86.128 0 0 86.128 0 192s86.128 192 192 192c105.864 0 192-86.128 192-192 0-8.832-7.168-16-16-16z"/><path d="M214.624 192l36.688-36.688c6.248-6.248 6.248-16.376 0-22.624s-16.376-6.248-22.624 0L192 169.376l-36.688-36.688c-6.24-6.248-16.384-6.248-22.624 0-6.248 6.248-6.248 16.376 0 22.624L169.376 192l-36.688 36.688c-6.248 6.248-6.248 16.376 0 22.624C135.808 254.44 139.904 256 144 256s8.192-1.56 11.312-4.688L192 214.624l36.688 36.688C231.816 254.44 235.904 256 240 256s8.184-1.56 11.312-4.688c6.248-6.248 6.248-16.376 0-22.624L214.624 192z"/></svg>