<svg xmlns="http://www.w3.org/2000/svg" viewBox="0 0 197.771 197.771"><path d="M.108 55.994a2.15 2.15 0 002.16 2.146h.005l72.123-.168a36.112 36.112 0 003.641 9.84l-75.729.18a2.165 2.165 0 00-2.157 2.162A2.15 2.15 0 002.313 72.3h.005l78.553-.185a29.608 29.608 0 0023.575 11.702c2.415 0 4.833-.343 7.212-.954l-2.869 2.863c-1.236-.253-3.768-.665-6.868-.665-6.853 0-12.419 2.025-16.108 5.864-2.505 2.61-3.127 6.497-3.678 9.93-.427 2.642-.865 5.384-2.052 6.217-.983.675-2.096.153-3.312-.38-1.785-.801-4.071-1.239-5.458.211-3.333 3.486-1.463 10.315 4.354 15.916 3.596 3.47 7.85 5.526 11.372 5.526 1.938 0 3.567-.633 4.72-1.835 1.78-1.862.651-4.108-.019-5.459-.82-1.64-1.1-2.389-.517-3.29.793-1.224 3.504-1.767 6.122-2.3 3.404-.686 7.259-1.466 9.779-4.092 6.858-7.113 5.351-18.183 4.475-22.359l3.296-3.291c-3.085 11.818 1.287 24.817 11.944 32.026v77.852c0 1.191.971 2.162 2.162 2.162a2.178 2.178 0 002.162-2.162V120.24a36.363 36.363 0 009.846 3.201v72.167c0 1.191.976 2.162 2.162 2.162s2.157-.986 2.157-2.162v-71.725c.606.043 1.218.138 1.835.138 2.389 0 4.814-.237 7.214-.723 9.155-1.825 17.075-6.993 22.476-14.539 1.35 1.018 3.054 2.03 5.221 2.03 1.993 0 3.986-.886 5.933-2.637.501-.453.907-.971 1.345-1.523 1.044-1.361 2.141-2.774 6.623-3.766a2.175 2.175 0 001.16-3.538c-.115-.122-2.268-2.574-6.006-3.633.216-.559.374-1.092.521-1.577.507-1.624.781-2.51 2.236-3.333a2.142 2.142 0 001.103-1.925 2.184 2.184 0 00-1.182-1.882c-.242-.122-2.474-1.213-5.311-1.213-2.562 0-4.83.907-6.623 2.615-1.973-3.048-4.646-4.393-4.799-4.472a2.162 2.162 0 00-2.136.121 2.179 2.179 0 00-.986 1.904c.189 4.609-.896 6.006-1.936 7.383-.433.564-.817 1.091-1.123 1.688-3.059 5.985.147 9.292 2.489 11.09-4.768 6.718-11.744 11.354-19.86 12.962-7.772 1.561-15.667.2-22.465-3.771-.194-.997-1.022-1.762-2.077-1.762-.153 0-.285.063-.422.095-5.284-3.85-8.723-9.35-9.936-15.372a19.799 19.799 0 005.569 5.574c4.061 2.706 8.711 4.119 13.447 4.119 1.466 0 2.921-.132 4.387-.396 3.84-.723 7.277-2.405 10.21-4.772.886.321 2.362.743 4.019.743 1.424 0 2.953-.321 4.308-1.255 2.41-1.683 3.454-4.836 3.054-9.745-.147-1.672-.422-4.757.928-7.557a2.158 2.158 0 00-.337-2.373 2.155 2.155 0 00-2.342-.58c-1.266.454-12.456 4.672-14.038 11.644-.343 1.529-.253 3.712 1.282 6.144-2.294 1.724-4.931 2.979-7.879 3.518-5.078.949-10.278-.138-14.645-3.054-3.47-2.31-5.827-5.79-6.634-9.809-.549-2.711-.285-5.432.644-7.937.527-1.123 1.033-2.247 1.751-3.307.01-.011.01-.021.01-.031 3.576-4.915 10.568-6.139 15.842-2.6a9.013 9.013 0 013.881 5.669c.491 2.294.059 4.614-1.213 6.529-2.004 2.984-6.138 3.733-9.229 1.682-1.007-.653-2.347-.39-3.006.591a2.184 2.184 0 00.597 3.006c5.078 3.386 11.907 2.099 15.224-2.869 1.92-2.89 2.579-6.391 1.836-9.83-.729-3.428-2.764-6.402-5.706-8.358-3.17-2.115-6.803-2.906-10.305-2.626l3.977-3.977a2.151 2.151 0 000-3.048 2.16 2.16 0 00-3.048 0l-3.929 3.929c.258-3.476-.544-7.062-2.621-10.199a13.474 13.474 0 00-8.364-5.722c-3.459-.728-6.95-.079-9.843 1.867-4.962 3.312-6.251 10.141-2.876 15.208a2.153 2.153 0 002.995.59 2.15 2.15 0 00.601-2.995c-2.059-3.09-1.308-7.229 1.688-9.223 1.909-1.282 4.225-1.719 6.539-1.234 2.32.496 4.335 1.877 5.664 3.881 3.507 5.273 2.305 12.261-2.605 15.847-.01.006-.026.006-.042.016-1.06.712-2.188 1.229-3.307 1.75-6.322 2.31-13.742.011-17.755-5.975-4.751-7.119-4.277-16.126.438-22.476 1.658 1.065 3.203 1.419 4.498 1.419.606 0 1.168-.079 1.653-.18 6.984-1.582 11.198-12.767 11.667-14.054.296-.812.063-1.734-.58-2.341-.659-.58-1.603-.723-2.383-.338-2.795 1.34-5.751 1.097-7.958.918-4.512-.364-7.646.664-9.342 3.063-2.081 2.948-1.113 6.708-.53 8.358-6.199 7.784-6.992 19.122-1.049 28.018 1.58 2.368 3.641 4.166 5.888 5.606-6.001-1.139-11.515-4.482-15.417-9.661a2.18 2.18 0 00-1.026-1.298c-4.688-7.108-6.357-15.625-4.688-23.973 1.619-8.121 6.249-15.114 12.975-19.881 1.324 1.745 3.23 3.765 6.471 3.765 1.453 0 2.958-.417 4.612-1.255.588-.311 1.128-.696 1.689-1.128 1.258-.971 2.566-1.962 6.413-1.962l.976.031c.712-.021 1.481-.337 1.893-.98a2.183 2.183 0 00.132-2.141c-.079-.137-1.418-2.816-4.45-4.793a9.095 9.095 0 002.114-3.512c1.382-4.182-.633-8.253-.728-8.432a2.18 2.18 0 00-1.883-1.187c-.812.005-1.545.406-1.93 1.107-.814 1.45-1.711 1.725-3.33 2.226-.493.147-1.016.316-1.577.527C100.839 2.8 98.411.638 98.282.533a2.102 2.102 0 00-2.091-.422 2.146 2.146 0 00-1.437 1.577c-1.015 4.493-2.418 5.584-3.778 6.639-.562.443-1.076.844-1.524 1.35-4.375 4.836-2.386 8.754-.615 11.132-7.549 5.411-12.711 13.326-14.549 22.486a36.775 36.775 0 00-.562 10.394l-71.48.169c-1.165-.042-2.138.934-2.138 2.136zm103.889 52.429c-1.582 1.645-4.611 2.257-7.52 2.837-3.494.706-7.108 1.444-8.894 4.182-1.983 3.054-.57 5.896.279 7.578.119.237.274.554.382.791-.382.179-.852.231-1.223.231-2.36 0-5.651-1.682-8.382-4.334-3.953-3.808-5.184-7.826-4.477-9.43.261.105.572.243.81.338 1.956.886 5.142 1.692 7.578-.026 2.679-1.888 3.262-5.532 3.829-9.065.469-2.937.954-5.979 2.526-7.62 3.602-3.744 9.057-4.529 12.994-4.529a31.4 31.4 0 013.051.152l-4.153 4.15c-2.813-1.408-6.42-1.013-8.662 1.313a7.331 7.331 0 00-2.057 5.252 7.327 7.327 0 002.273 5.179 7.326 7.326 0 005.097 2.052 7.255 7.255 0 005.308-2.268 7.265 7.265 0 002.065-5.258c-.021-1.171-.396-2.257-.923-3.265l3.887-3.897c.528 4.414.471 11.201-3.788 15.637zm-3.475-8.359a3.021 3.021 0 01-.854 2.178c-1.134 1.176-3.133 1.224-4.309.095a3.01 3.01 0 01-.946-2.141 3.028 3.028 0 01.854-2.172 3.055 3.055 0 012.207-.944c.514 0 .983.169 1.426.406a2.112 2.112 0 001.216 1.202c.232.416.393.875.406 1.376zm74.221-3.059c.189-.369.448-.696.717-1.044.907-1.181 2.036-2.668 2.563-5.542a8.868 8.868 0 011.318 2.795c.222.854.97 1.487 1.861 1.587.901.143 1.745-.374 2.146-1.187 1.191-2.362 2.868-3.496 5.146-3.496.042 0 .085 0 .121.005-.532.955-.833 1.915-1.097 2.769-.332 1.118-.67 2.157-1.461 3.217a2.128 2.128 0 00-.221 2.247 2.158 2.158 0 001.908 1.224 8.413 8.413 0 012.896.554c-2.658 1.239-3.802 2.731-4.715 3.918-.269.343-.511.681-.817.96-1.128 1.018-2.141 1.529-3.037 1.529-1.234 0-2.415-.976-3.56-1.909l-1.692-1.308c-2.546-1.863-3.785-2.975-2.076-6.319zm-22.676-2.394c.559-2.479 3.934-4.973 7.256-6.739-.242 2.141-.084 4.061.037 5.384.227 2.806-.227 4.741-1.266 5.484-.585.417-1.424.517-2.246.454.396-.506.849-.944 1.207-1.466a2.17 2.17 0 00-.59-3 2.163 2.163 0 00-2.996.59c-.337.506-.765.913-1.128 1.376-.443-1.039-.358-1.772-.274-2.083zM98.9 39.551c.736-1.034 2.674-1.498 5.864-1.223 1.189.105 2.942.242 4.968.005-1.65 3.117-4.108 6.655-6.716 7.251-.314.084-1.05.169-2.075-.264.459-.38.87-.791 1.366-1.139 1-.665 1.26-2.004.596-3.001-.659-1.007-1.994-1.25-2.998-.596-.541.354-.968.817-1.463 1.224-.047-.838.032-1.666.458-2.257zm-6.219-27.016c.279-.306.609-.548.96-.817 1.178-.907 2.657-2.057 3.905-4.704a8.64 8.64 0 01.541 2.879c.011.802.479 1.55 1.21 1.909a2.162 2.162 0 002.252-.217c1.047-.785 2.094-1.118 3.212-1.46.88-.274 1.858-.564 2.818-1.128.021 1.771-.69 3.86-3.547 5.289-.793.406-1.271 1.255-1.178 2.151s.73 1.635 1.592 1.867a8.796 8.796 0 012.793 1.308c-2.888.522-4.385 1.661-5.556 2.558-.351.269-.675.538-1.042.723-3.04 1.545-4.419.522-6.275-2.072l-1.292-1.683c-2.002-2.415-2.928-3.808-.393-6.603z"/></svg>