<svg xmlns="http://www.w3.org/2000/svg" viewBox="0 0 511.999 511.999"><path d="M459.806 26.796a7.601 7.601 0 00-6.007-6.529A977.407 977.407 0 00255.999 0 977.475 977.475 0 0058.2 20.266a7.6 7.6 0 00-6.006 6.529c-17.719 145.987-8.103 253.468 29.4 328.581 32.581 65.257 81.179 95.271 120.228 119.388 18.549 11.457 36.071 22.277 48.802 35.008 1.485 1.484 3.432 2.226 5.378 2.226s3.892-.742 5.377-2.226c12.731-12.732 30.252-23.552 48.802-35.008 39.05-24.117 87.647-54.131 120.228-119.388 37.499-75.112 47.115-182.593 29.397-328.58zM416.8 348.584c-30.648 61.385-75.256 88.934-114.613 113.241-16.935 10.459-33.05 20.412-46.188 32.126-13.138-11.714-29.252-21.666-46.188-32.126-39.357-24.306-83.964-51.856-114.612-113.241-35.67-71.444-45.023-174.357-28.558-314.52 62.226-12.515 125.9-18.857 189.358-18.857s127.132 6.342 189.359 18.857c16.465 140.163 7.112 243.076-28.558 314.52z"/><path d="M426.519 57.712a7.601 7.601 0 00-6.235-6.727 945.396 945.396 0 00-69.33-9.662c-4.19-.427-7.918 2.666-8.311 6.861v.001c-.389 4.169 2.665 7.85 6.83 8.275a931.051 931.051 0 0162.477 8.51c4.909 51.284 5.949 97.457 3.138 137.684a1025.074 1025.074 0 00-151.487-12.432V51.741c16.866.141 33.881.75 50.765 1.819 4.177.265 7.794-2.865 8.093-7.04v-.002c.303-4.225-2.905-7.867-7.131-8.135A941.309 941.309 0 00256 36.499c-54.877 0-110.15 4.875-164.284 14.486a7.603 7.603 0 00-6.236 6.727c-6.368 63.332-7.026 119.321-1.955 166.408 4.867 45.195 15.205 83.871 30.724 114.955 27.942 55.964 68.006 80.707 106.752 104.636 10.784 6.66 20.97 12.951 30.617 19.754a7.592 7.592 0 004.382 1.39 7.592 7.592 0 004.382-1.39c9.662-6.813 19.841-13.099 30.619-19.755 38.745-23.929 78.808-48.672 106.75-104.635 15.519-31.084 25.856-69.76 30.724-114.955 5.07-47.091 4.413-103.079-1.956-166.408zM100.048 64.97a927.443 927.443 0 01148.347-13.223v138.474c-50.61.38-101.49 4.555-151.487 12.433-2.811-40.226-1.769-86.397 3.14-137.684zm313.305 157.522c-4.673 43.39-14.499 80.329-29.208 109.788-26.008 52.092-64.2 75.68-101.136 98.492-6.675 4.121-13.117 8.11-19.406 12.19V337.516a7.605 7.605 0 00-15.208 0v105.445c-6.285-4.078-12.728-8.067-19.405-12.191-36.936-22.811-75.128-46.398-101.136-98.491-14.709-29.461-24.536-66.398-29.209-109.788-.164-1.529-.308-3.092-.46-4.64a1009.908 1009.908 0 01150.211-12.422v96.601a7.605 7.605 0 0015.208 0v-96.601a1009.775 1009.775 0 01150.211 12.422c-.154 1.548-.298 3.112-.462 4.641z"/></svg>