<svg xmlns="http://www.w3.org/2000/svg" viewBox="0 0 511.593 511.593"><path d="M463.509 24.47c0-1.989-.79-3.897-2.197-5.303l-16.971-16.97a7.5 7.5 0 00-10.606 0L196.956 238.976c-8.001 8.001-15.84 17.416-18.998 32.001-2.302 10.633-9.089 45.199-10.905 54.47L50.28 442.221a7.5 7.5 0 000 10.606l56.568 56.568a7.5 7.5 0 0011.739-1.451l66.053-110.351 31.305-10.435a7.5 7.5 0 005.063-6.128c.026-.196 2.306-17.364 4.796-36.553l32.67-32.67c12.282-12.282 12.282-32.266 0-44.547l-.354-.354 140.01-140.01a7.497 7.497 0 002.197-5.303V90.758l60.985-60.985a7.497 7.497 0 002.197-5.303zM247.868 277.867c6.433 6.434 6.433 16.901 0 23.334l-18.939 18.939c.754-5.958 1.389-11.065 1.898-15.266.547-4.511.956-8.029 1.213-10.456.06-.566.117-1.097.166-1.598l15.308-15.308.354.355zM387.53 82.343l-.01.01-17.24 17.24a7.5 7.5 0 000 10.606 7.5 7.5 0 0010.606 0l4.441-4.441v12.728L242.216 261.599l-.005.005-.005.005-22.622 22.622a7.499 7.499 0 00-2.183 5.759c-.393 5.917-6.449 52.707-10.646 84.421l-29.494 9.832a7.498 7.498 0 00-4.063 3.263L110.655 491.99 66.19 447.524l113.088-113.089a7.505 7.505 0 002.058-3.864c.086-.444 8.704-44.508 11.283-56.42 1.499-6.925 4.407-12.656 9.842-19.063l.152.152c4.582 4.582 10.598 6.872 16.617 6.872 6.017 0 12.036-2.292 16.617-6.872l98.437-98.437a7.5 7.5 0 000-10.606 7.5 7.5 0 00-10.606 0l-98.437 98.437c-3.314 3.315-8.707 3.314-12.021 0l-.354-.354L439.039 18.106l6.364 6.364-57.873 57.873z"/><path d="M352.478 117.395l-11 11a7.5 7.5 0 005.303 12.803 7.474 7.474 0 005.303-2.197l11-11a7.5 7.5 0 000-10.606 7.5 7.5 0 00-10.606 0z"/></svg>