<svg viewBox="0 0 512 512" xmlns="http://www.w3.org/2000/svg"><path d="M123.467 31.566h9.066v9.067c0 4.143 3.357 7.5 7.5 7.5s7.5-3.357 7.5-7.5v-9.067h9.066c4.143 0 7.5-3.357 7.5-7.5s-3.357-7.5-7.5-7.5h-9.066V7.5c0-4.143-3.357-7.5-7.5-7.5s-7.5 3.357-7.5 7.5v9.066h-9.066c-4.143 0-7.5 3.357-7.5 7.5s3.357 7.5 7.5 7.5zM388.533 480.434h-9.066v-9.067c0-4.143-3.357-7.5-7.5-7.5s-7.5 3.357-7.5 7.5v9.067H355.4c-4.143 0-7.5 3.357-7.5 7.5s3.357 7.5 7.5 7.5h9.066v9.066c0 4.143 3.357 7.5 7.5 7.5s7.5-3.357 7.5-7.5v-9.066h9.066c4.143 0 7.5-3.357 7.5-7.5s-3.356-7.5-7.499-7.5zM139.25 305.7c0-13.271-10.796-24.066-24.066-24.066S91.116 292.43 91.116 305.7s10.797 24.066 24.067 24.066 24.067-10.795 24.067-24.066zm-24.066 9.067c-5 0-9.067-4.067-9.067-9.066s4.067-9.066 9.067-9.066c4.999 0 9.066 4.067 9.066 9.066s-4.067 9.066-9.066 9.066zM131.75 263.5c13.27 0 24.066-10.796 24.066-24.066s-10.796-24.067-24.066-24.067-24.066 10.797-24.066 24.067S118.479 263.5 131.75 263.5zm0-33.134c4.999 0 9.066 4.067 9.066 9.067 0 4.999-4.067 9.066-9.066 9.066s-9.066-4.067-9.066-9.066 4.067-9.067 9.066-9.067z"/><path d="M462.3 255.666c-.011-6.411-4.423-11.787-10.729-13.074-6.296-1.279-12.45 1.93-14.968 7.814-21.044 49.196-69.145 80.929-122.624 80.929l-.359-.001c-73.116-.195-132.759-59.838-132.953-132.953-.143-53.619 31.623-101.894 80.929-122.983 5.884-2.518 9.097-8.672 7.812-14.968-1.287-6.306-6.663-10.718-13.087-10.729H256c-49.345 0-97.096 17.697-134.458 49.832a7.5 7.5 0 009.781 11.373c32.781-28.195 74.191-44.403 117.316-46.063-50.804 24.916-83.125 76.527-82.973 133.577.217 81.343 66.569 147.696 147.913 147.914l.4.001c56.893-.002 108.324-32.289 133.18-82.979C443.277 365.44 359.018 447.3 256 447.3c-8.348 0-16.77-.549-25.034-1.632-.476-.062-.641-.589-.663-.892a24.17 24.17 0 00-.397-2.922c-2.131-10.735-11.224-18.696-22.113-19.359-8.759-.518-17.137 3.747-21.829 11.172-.079.126-.434.221-.782.082-19.635-7.83-37.752-18.818-53.85-32.661a7.497 7.497 0 00-10.576.797 7.499 7.499 0 00.797 10.576c17.356 14.926 36.895 26.776 58.071 35.221 7.049 2.812 15.046.287 19.021-6.003a9.072 9.072 0 018.236-4.211c4.024.245 7.52 3.318 8.311 7.308.073.371.125.742.151 1.102.562 7.652 6.185 13.683 13.673 14.664a208.475 208.475 0 0026.983 1.759c113.754 0 206.3-92.546 206.3-206.3v-.335zM64.7 256c0-45.757 16.409-90.035 46.205-124.677a7.5 7.5 0 00-11.373-9.781C67.397 158.904 49.7 206.655 49.7 256c0 49.343 17.699 97.092 49.837 134.451a7.482 7.482 0 005.688 2.608 7.5 7.5 0 005.683-12.392C81.11 346.03 64.7 301.755 64.7 256zM463.083 381.033a7.499 7.499 0 00-7.5 7.5V405.1c0 4.143 3.357 7.5 7.5 7.5s7.5-3.357 7.5-7.5v-16.566a7.5 7.5 0 00-7.5-7.501zM463.083 447.3a7.499 7.499 0 00-7.5 7.5v16.566c0 4.143 3.357 7.5 7.5 7.5s7.5-3.357 7.5-7.5V454.8c0-4.143-3.357-7.5-7.5-7.5zM504.5 422.45h-16.566c-4.143 0-7.5 3.357-7.5 7.5s3.357 7.5 7.5 7.5H504.5c4.143 0 7.5-3.357 7.5-7.5s-3.357-7.5-7.5-7.5zM438.233 422.45h-16.566c-4.143 0-7.5 3.357-7.5 7.5s3.357 7.5 7.5 7.5h16.566c4.143 0 7.5-3.357 7.5-7.5s-3.357-7.5-7.5-7.5zM48.917 64.7c4.143 0 7.5-3.357 7.5-7.5V40.634c0-4.143-3.357-7.5-7.5-7.5s-7.5 3.357-7.5 7.5V57.2c0 4.143 3.357 7.5 7.5 7.5zM56.417 123.467V106.9c0-4.143-3.357-7.5-7.5-7.5s-7.5 3.357-7.5 7.5v16.566c0 4.143 3.357 7.5 7.5 7.5s7.5-3.357 7.5-7.499zM73.767 89.55h16.566c4.143 0 7.5-3.357 7.5-7.5s-3.357-7.5-7.5-7.5H73.767a7.499 7.499 0 00-7.5 7.5 7.5 7.5 0 007.5 7.5zM24.066 74.55H7.5c-4.143 0-7.5 3.357-7.5 7.5s3.357 7.5 7.5 7.5h16.566c4.143 0 7.5-3.357 7.5-7.5s-3.357-7.5-7.5-7.5z"/></svg>