<svg xmlns="http://www.w3.org/2000/svg" viewBox="0 0 64 64"><path d="M53 56h-.307l-2.37-6.321a2.985 2.985 0 00-.219-5.462 24.954 24.954 0 00.98-33.355 1 1 0 00-1.527 1.292A22.959 22.959 0 0147.468 44H41a1 1 0 000 2h8a1 1 0 010 2H15a1 1 0 010-2h22a1 1 0 000-2h-4v-1a1 1 0 00-2 0v1H16.532A22.988 22.988 0 0146.846 9.443a1 1 0 101.293-1.526 24.987 24.987 0 00-34.239 36.3 2.985 2.985 0 00-.219 5.462L11.307 56H11a3 3 0 000 6h13a1 1 0 000-2H11a1 1 0 010-2h42a1 1 0 010 2H28a1 1 0 000 2h25a3 3 0 000-6zm-39.557 0l2.25-6h32.614l2.25 6z"/><path d="M38 52H26a1 1 0 000 2h12a1 1 0 000-2zM46 52h-3a1 1 0 000 2h3a1 1 0 000-2zM22 52h-4a1 1 0 000 2h4a1 1 0 000-2zM48.782 25.377C48.478 24.994 41.213 16 32 16s-16.478 8.994-16.782 9.377a1 1 0 000 1.246C15.522 27.006 22.787 36 32 36s16.478-8.994 16.782-9.377a1 1 0 000-1.246zM17.319 26a30.234 30.234 0 016.168-5.226 9.948 9.948 0 00-.018 10.435A30.38 30.38 0 0117.319 26zm23.165 5.244a9.831 9.831 0 001.473-4.393 1 1 0 00-1.992-.168 8 8 0 11-.493-3.522 1 1 0 001.869-.711 9.8 9.8 0 00-.842-1.679A30.353 30.353 0 0146.681 26a30.2 30.2 0 01-6.197 5.244z"/><path d="M32 21a5 5 0 105 5 5.006 5.006 0 00-5-5zm0 8a3 3 0 113-3 3 3 0 01-3 3z"/><path d="M48.737 31.085a1 1 0 00-1.413-.062C43.851 34.206 38.373 38 32 38s-11.851-3.794-15.324-6.977a1 1 0 00-1.352 1.477C19.06 35.92 24.984 40 32 40s12.94-4.08 16.676-7.5a1 1 0 00.061-1.415zM15.324 19.5a1 1 0 001.352 1.475C20.149 17.794 25.627 14 32 14s11.851 3.794 15.324 6.977a1 1 0 001.352-1.477C44.94 16.08 39.016 12 32 12s-12.94 4.08-16.676 7.5zM33 9V7a1 1 0 00-2 0v2a1 1 0 002 0zM40 12a1 1 0 00.9-.553l1-2a1 1 0 10-1.79-.894l-1 2A1 1 0 0040 12zM24 12a1 1 0 00.894-1.447l-1-2a1 1 0 00-1.79.894l1 2A1 1 0 0024 12zM43.293 38.293a1 1 0 000 1.414l2 2a1 1 0 001.414-1.414l-2-2a1 1 0 00-1.414 0zM19.293 38.293l-2 2a1 1 0 101.414 1.414l2-2a1 1 0 00-1.414-1.414z"/></svg>