<svg viewBox="0 0 64 64" xmlns="http://www.w3.org/2000/svg"><path d="M55 24C55 11.317 44.683 1 32 1S9 11.317 9 24c0 3.263.678 6.412 2 9.376V61a2 2 0 004 0V39.484c.284.31.576.61.875.903.057.056.117.108.174.162a23.11 23.11 0 002.111 1.794c.095.072.188.146.284.216.385.28.777.55 1.178.805.094.06.19.115.284.173a23.192 23.192 0 002.41 1.302c.088.041.175.086.265.126.435.197.877.378 1.324.547.118.045.236.084.354.127a23.099 23.099 0 002.703.792c.062.014.123.031.185.045.473.103.95.188 1.431.26.134.021.269.037.403.055.367.049.735.09 1.105.12.144.013.287.026.431.035.492.032.986.054 1.483.054s.99-.022 1.483-.054c.144-.01.287-.022.431-.035.37-.03.738-.071 1.105-.12.134-.018.269-.034.403-.054.48-.073.958-.158 1.431-.261.063-.014.124-.031.186-.046a22.978 22.978 0 002.704-.792c.117-.042.234-.081.35-.125.449-.17.891-.352 1.327-.548.088-.04.174-.084.262-.125a23.24 23.24 0 002.42-1.307c.09-.057.183-.11.273-.168.403-.257.798-.527 1.184-.808.092-.067.18-.138.272-.207a23.31 23.31 0 002.135-1.814c.051-.05.105-.096.155-.146.3-.294.594-.595.879-.906v18.787l-16.397-5.178c-.008-.003-.015-.003-.023-.005-.067-.02-.137-.03-.207-.043-.06-.012-.12-.03-.18-.035-.052-.005-.104 0-.157 0-.078-.002-.156-.007-.233 0-.045.005-.09.019-.136.026-.084.015-.168.028-.25.053l-.02.004-12 3.789a2 2 0 001.206 3.814L32 57.097l18.397 5.81a1.993 1.993 0 001.786-.294A2 2 0 0053 61V33.377c1.322-2.963 2-6.114 2-9.377zM29.288 42.803c-6.238-.909-11.746-4.906-14.479-10.695A18.89 18.89 0 0113 24c0-10.477 8.523-19 19-19s19 8.523 19 19c0 2.83-.608 5.558-1.809 8.106C46.068 38.724 39.321 43 32 43c-.915 0-1.821-.067-2.712-.197z"/><path d="M37.231 33.974a2 2 0 101.538-3.694l-6-2.497a1.997 1.997 0 00-1.538 0l-3.223 1.342.28-3.48a1.998 1.998 0 00-.476-1.462L25.54 21.53l3.398-.81a1.995 1.995 0 001.243-.903L32 16.838l1.82 2.98c.277.455.724.78 1.242.904l3.398.81-2.273 2.65a2 2 0 103.038 2.604l4.404-5.139a2.001 2.001 0 00-1.055-3.247L36.8 17.023l-3.093-5.065a2 2 0 00-3.414 0L27.2 17.023 21.426 18.4a2 2 0 00-1.055 3.247l3.862 4.507-.474 5.916a2 2 0 002.762 2.007L32 31.796l5.231 2.178z"/></svg>