<svg viewBox="0 0 512 512" xmlns="http://www.w3.org/2000/svg"><path d="M509.625 252.592a10 10 0 00-11.189-2.874 37.333 37.333 0 01-13.357 2.448c-11.677 0-22.482-5.302-29.646-14.546a10.242 10.242 0 00-.606-.711c-14.741-17.27-36.179-27.165-58.879-27.165-8.083 0-15.949 1.219-23.497 3.629a123.496 123.496 0 00-9.589-20.206c2.457-10.275 7.684-19.624 15.222-27.162 6.71-6.71 15.002-11.685 23.984-14.389 9.303-2.664 17.87-7.722 24.777-14.628 14.403-14.403 20.127-35.599 14.939-55.316a10 10 0 00-18.798-1.541 37.308 37.308 0 01-7.714 11.175c-8.256 8.257-19.645 12.149-31.248 10.678a9.656 9.656 0 00-.93-.074c-22.636-1.787-44.792 6.373-60.844 22.425a76.945 76.945 0 00-14.034 19.212 123.03 123.03 0 00-21.117-7.597c-5.505-8.989-8.408-19.274-8.408-29.912 0-9.492 2.347-18.875 6.787-27.137 4.694-8.463 7.174-18.095 7.174-27.861 0-20.369-10.94-39.405-28.55-49.678a10.004 10.004 0 00-11.509 1.012 10.002 10.002 0 00-2.874 11.19 37.333 37.333 0 012.448 13.357c0 11.677-5.302 22.482-14.546 29.646-.246.191-.483.393-.711.606-17.27 14.741-27.165 36.179-27.165 58.879 0 8.083 1.219 15.949 3.629 23.497a123.496 123.496 0 00-20.206 9.589c-10.275-2.457-19.624-7.684-27.162-15.222-6.71-6.71-11.685-15.002-14.389-23.984-2.664-9.303-7.722-17.87-14.628-24.777-14.403-14.402-35.598-20.127-55.316-14.939a10 10 0 00-1.541 18.798 37.308 37.308 0 0111.175 7.714c8.257 8.256 12.148 19.646 10.678 31.248-.04.309-.064.62-.074.93-1.788 22.635 6.373 44.792 22.425 60.844a76.945 76.945 0 0019.212 14.034 123.03 123.03 0 00-7.597 21.117c-8.989 5.505-19.274 8.408-29.912 8.408-9.492 0-18.875-2.347-27.137-6.787-8.463-4.694-18.095-7.174-27.861-7.174-20.369 0-39.405 10.94-49.678 28.55a10.001 10.001 0 0012.202 14.383 37.333 37.333 0 0113.357-2.448c11.677 0 22.482 5.302 29.646 14.546.191.246.393.483.606.711 14.741 17.27 36.179 27.165 58.879 27.165 8.083 0 15.949-1.219 23.497-3.629a123.496 123.496 0 009.589 20.206c-2.457 10.275-7.684 19.624-15.222 27.162-6.71 6.71-15.002 11.685-23.984 14.389-9.303 2.664-17.87 7.722-24.777 14.628-14.403 14.403-20.127 35.599-14.939 55.316a10 10 0 0018.798 1.54 37.308 37.308 0 017.714-11.175c8.257-8.256 19.648-12.145 31.248-10.678.309.04.619.064.93.074 2.055.162 4.101.243 6.143.243a77.263 77.263 0 0054.701-22.667 76.945 76.945 0 0014.034-19.212 123.03 123.03 0 0021.117 7.597c5.505 8.989 8.408 19.274 8.408 29.912 0 9.492-2.347 18.875-6.787 27.137-4.694 8.463-7.174 18.095-7.174 27.861 0 20.369 10.94 39.405 28.55 49.678a9.996 9.996 0 0011.509-1.013 10.002 10.002 0 002.874-11.19 37.333 37.333 0 01-2.448-13.357c0-11.677 5.302-22.482 14.546-29.646.246-.191.483-.393.711-.606 17.27-14.741 27.165-36.179 27.165-58.879 0-8.083-1.219-15.949-3.629-23.497a123.496 123.496 0 0020.206-9.589c10.275 2.457 19.624 7.684 27.162 15.222 6.71 6.71 11.685 15.002 14.389 23.984 2.664 9.303 7.722 17.87 14.628 24.777 10.892 10.892 25.667 16.821 40.751 16.82 4.862 0 9.758-.617 14.565-1.881a10 10 0 001.541-18.798 37.308 37.308 0 01-11.175-7.714c-8.257-8.256-12.148-19.646-10.678-31.248.04-.309.064-.62.074-.93 1.788-22.635-6.373-44.792-22.425-60.844a76.945 76.945 0 00-19.212-14.034 122.985 122.985 0 007.596-21.116 56.638 56.638 0 0119.286-7.429c5.429-1.015 9.006-6.239 7.991-11.668s-6.236-9.009-11.668-7.991a77.145 77.145 0 00-11.875 3.225c.139-2.395.217-4.807.217-7.236 0-7.969-.765-15.762-2.208-23.317a57.054 57.054 0 0118.156-2.938c16.927 0 32.91 7.422 43.85 20.364.043.052.088.104.133.154 8.818 11.184 21.15 18.532 34.854 20.991a10 10 0 00-1.006 10.732 9.999 9.999 0 0013.469 4.313 57.532 57.532 0 0023.391-22.199 9.999 9.999 0 00-1.014-11.507zM260.247 359.906c-27.743-1.122-53.826-12.546-73.48-32.201-33.613-33.613-33.613-88.306 0-121.918 26.11-26.111 68.596-26.111 94.706 0 20.109 20.108 20.109 52.828 0 72.937-15.307 15.308-40.214 15.308-55.521 0-5.555-5.554-8.613-12.939-8.613-20.794s3.059-15.24 8.613-20.794c3.905-3.905 3.905-10.237 0-14.142-3.905-3.904-10.237-3.904-14.143 0-19.264 19.264-19.264 50.609 0 69.873 23.105 23.104 60.7 23.104 83.806 0 27.907-27.907 27.907-73.314 0-101.222-31.545-31.544-81.482-33.726-115.593-6.581C199.018 164.733 226.048 152 256 152c57.346 0 104 46.654 104 104 0 55.923-44.37 101.67-99.753 103.906zm76.145-221.429c11.969-11.97 28.517-18.019 45.407-16.607.067.006.135.011.203.015 13.366 1.582 26.528-1.479 37.581-8.531a37.274 37.274 0 01-6.878 9.491c-4.524 4.523-10.122 7.828-16.187 9.557l-.131.038c-12.166 3.647-23.385 10.363-32.444 19.422a77.303 77.303 0 00-15.32 21.789 124.963 124.963 0 00-23.011-20.217 56.998 56.998 0 0110.78-14.957zm-106.647-22.424c0-16.927 7.422-32.91 20.364-43.85.052-.043.104-.088.154-.133 10.569-8.333 17.712-19.804 20.541-32.605a37.254 37.254 0 011.847 11.575c0 6.396-1.621 12.691-4.688 18.204l-.065.119c-6.023 11.181-9.208 23.863-9.208 36.675a77.308 77.308 0 004.551 26.179c-2.397-.139-4.81-.217-7.241-.217-7.969 0-15.762.765-23.317 2.208a57.052 57.052 0 01-2.938-18.155zm-91.268 59.555c-11.97-11.97-18.022-28.52-16.607-45.407.006-.067.011-.135.015-.203 1.582-13.367-1.479-26.527-8.53-37.58a37.267 37.267 0 019.491 6.878c4.523 4.524 7.828 10.122 9.557 16.187l.038.131c3.647 12.166 10.363 23.385 19.422 32.444a77.303 77.303 0 0021.789 15.32 124.963 124.963 0 00-20.217 23.011 57.036 57.036 0 01-14.958-10.781zm-22.424 106.647c-16.927 0-32.91-7.422-43.85-20.364a4.893 4.893 0 00-.133-.154c-8.333-10.569-19.804-17.712-32.605-20.541a37.254 37.254 0 0111.575-1.847c6.396 0 12.691 1.621 18.204 4.688l.119.065c11.181 6.023 23.863 9.208 36.675 9.208a77.308 77.308 0 0026.179-4.551c-.139 2.397-.217 4.81-.217 7.241 0 7.969.765 15.762 2.208 23.317a57.047 57.047 0 01-18.155 2.938zm59.555 91.268c-11.97 11.97-28.52 18.018-45.407 16.607a6.678 6.678 0 00-.203-.015c-13.369-1.583-26.528 1.479-37.581 8.531a37.274 37.274 0 016.878-9.491c4.524-4.523 10.122-7.828 16.187-9.557l.131-.038c12.166-3.647 23.385-10.363 32.444-19.422a77.303 77.303 0 0015.32-21.789 124.963 124.963 0 0023.011 20.217 56.998 56.998 0 01-10.78 14.957zm106.647 22.424c0 16.927-7.422 32.91-20.364 43.85a4.893 4.893 0 00-.154.133c-10.569 8.333-17.712 19.804-20.541 32.605a37.254 37.254 0 01-1.847-11.575c0-6.396 1.621-12.691 4.688-18.204l.065-.119c6.023-11.181 9.208-23.863 9.208-36.675a77.308 77.308 0 00-4.551-26.179c2.397.139 4.81.217 7.241.217 7.969 0 15.762-.765 23.317-2.208a57.047 57.047 0 012.938 18.155zm91.268-59.556c11.97 11.97 18.022 28.52 16.607 45.407a6.678 6.678 0 00-.015.203c-1.582 13.367 1.479 26.527 8.53 37.58a37.267 37.267 0 01-9.491-6.878c-4.523-4.524-7.828-10.122-9.557-16.187l-.038-.131c-3.647-12.166-10.363-23.385-19.422-32.444a77.303 77.303 0 00-21.789-15.32 124.963 124.963 0 0020.217-23.011 57.059 57.059 0 0114.958 10.781z"/><path d="M437.89 266.7c-2.63 0-5.2 1.07-7.07 2.93-1.86 1.86-2.93 4.44-2.93 7.07s1.07 5.21 2.93 7.07c1.87 1.86 4.44 2.93 7.07 2.93 2.64 0 5.21-1.07 7.07-2.93 1.87-1.86 2.93-4.44 2.93-7.07s-1.06-5.21-2.93-7.07a10.058 10.058 0 00-7.07-2.93z"/></svg>