<svg viewBox="0 0 512 512" xmlns="http://www.w3.org/2000/svg"><path d="M320.935 221.325c-11.162-5.022-18.375-16.074-18.375-28.156v-79.87h.48c14.756 0 26.76-12.004 26.76-26.76 0-14.623-11.791-26.537-26.365-26.749l6.237-39.41c.023-.154.043-.308.059-.463a18.24 18.24 0 00-4.653-13.964A18.235 18.235 0 00291.616 0h-71.232c-5.114 0-10.02 2.17-13.461 5.953s-5.137 8.873-4.653 13.964c.016.155.035.309.059.463l6.238 39.421c-14.388.424-25.963 12.251-25.963 26.739 0 14.755 12.004 26.76 26.76 26.76h.48v26.675c0 4.142 3.357 7.5 7.5 7.5s7.5-3.358 7.5-7.5V113.3h19.375c4.143 0 7.5-3.358 7.5-7.5s-3.357-7.5-7.5-7.5h-34.855c-6.484 0-11.76-5.275-11.76-11.76s5.275-11.759 11.76-11.759h93.677c6.484 0 11.76 5.275 11.76 11.759s-5.275 11.76-11.76 11.76h-7.98a7.5 7.5 0 00-7.5 7.5v87.37c0 17.974 10.684 34.396 27.221 41.836 51.407 23.131 84.625 74.487 84.625 130.835 0 27.025-7.281 51.362-21.642 72.334a7.5 7.5 0 0012.376 8.476c15.874-23.183 24.265-51.126 24.265-80.808-.001-62.243-36.69-118.969-93.471-144.518zM223.75 59.78l-6.56-41.45a3.169 3.169 0 01.829-2.285A3.17 3.17 0 01220.383 15h71.232c1.23 0 2.009.655 2.364 1.045.339.372.88 1.152.829 2.285l-6.56 41.45z"/><path d="M359.466 459.281c-26.698 24.608-63.802 37.997-104.504 37.715-38.83-.275-74.588-13.211-100.686-36.425-27.09-24.096-41.502-56.613-41.68-94.034-.271-56.804 33.071-108.49 84.942-131.677 16.587-7.415 27.305-23.85 27.305-41.872v-23.014c0-4.142-3.357-7.5-7.5-7.5s-7.5 3.358-7.5 7.5v23.014c0 12.114-7.232 23.175-18.426 28.178-57.293 25.61-94.12 82.7-93.821 145.442.195 41.201 16.784 78.551 46.71 105.17 28.818 25.634 68.079 39.917 110.55 40.217.464.003.925.005 1.389.005 43.967-.001 84.191-14.778 113.387-41.69a7.5 7.5 0 10-10.166-11.029z"/><path d="M148.477 318.459a7.498 7.498 0 00-10.721 4.116c-4.523 13.108-6.816 26.836-6.816 40.802 0 33.055 13.104 63.13 36.897 84.687C190.879 468.942 222.19 480.44 256 480.44s65.121-11.498 88.164-32.375c23.794-21.557 36.897-51.633 36.897-84.687 0-13.967-2.293-27.695-6.816-40.802a7.5 7.5 0 00-5.496-4.882l-26.552-5.775c-27.846-6.057-57.473-2.905-83.419 8.875l-4.14 1.879c-33.901 15.387-73.588 13.814-106.161-4.214zm112.362 17.87l4.14-1.879c23.026-10.454 49.317-13.252 74.031-7.876l22.341 4.859a109.987 109.987 0 014.711 31.944c0 28.766-11.353 54.894-31.969 73.571-20.28 18.374-48.013 28.492-78.093 28.492s-57.814-10.118-78.093-28.491c-20.615-18.677-31.969-44.805-31.969-73.571 0-9.38 1.174-18.634 3.496-27.614 35.028 16.29 76.017 16.631 111.405.565z"/><path d="M312.85 406.245c.764 0 1.536-.031 2.311-.095 7.499-.612 14.311-4.107 19.181-9.842 4.869-5.735 7.214-13.024 6.602-20.523v.001c-.612-7.499-4.107-14.31-9.843-19.181-5.735-4.869-13.018-7.212-20.522-6.603-7.499.612-14.311 4.107-19.181 9.842-4.869 5.735-7.214 13.023-6.602 20.522 1.202 14.706 13.552 25.88 28.054 25.879zm-10.016-36.691a13.08 13.08 0 018.967-4.601c.365-.03.73-.044 1.092-.044 3.115 0 6.1 1.092 8.501 3.131a13.073 13.073 0 014.6 8.966v.001a13.077 13.077 0 01-3.086 9.593 13.08 13.08 0 01-8.967 4.601c-7.237.589-13.604-4.817-14.193-12.053a13.079 13.079 0 013.086-9.594zM216.936 262.59c-13.411 0-24.321 10.91-24.321 24.321s10.91 24.321 24.321 24.321c13.41 0 24.32-10.91 24.32-24.321s-10.91-24.321-24.32-24.321zm0 33.641c-5.14 0-9.321-4.181-9.321-9.321 0-5.139 4.182-9.321 9.321-9.321 5.14 0 9.32 4.181 9.32 9.321s-4.181 9.321-9.32 9.321zm7.75 134.097c.659 0 1.326-.027 1.995-.082 6.476-.528 12.357-3.546 16.563-8.498 4.205-4.952 6.229-11.245 5.701-17.72-1.092-13.365-12.85-23.358-26.218-22.262-6.476.528-12.357 3.546-16.563 8.498-4.205 4.952-6.229 11.245-5.701 17.72 1.037 12.698 11.7 22.344 24.223 22.344zm-7.088-30.355a9.26 9.26 0 016.348-3.257c.257-.021.512-.031.765-.031 4.799 0 8.886 3.698 9.282 8.563a9.256 9.256 0 01-2.185 6.791 9.26 9.26 0 01-6.348 3.257c-5.127.423-9.63-3.41-10.047-8.532a9.265 9.265 0 012.185-6.791z"/></svg>